<svg id="Layer_1" enable-background="new 0 0 512.148 512.148" height="512" viewBox="0 0 512.148 512.148" width="512" xmlns="http://www.w3.org/2000/svg"><g><ellipse cx="341.993" cy="119.152" fill="#c4573a" rx="80" ry="64"/><path d="m459.498 454.281v44.366c0 3.314-2.686 6-6 6h-223.011c-3.314 0-6-2.686-6-6v-44.366c0-19.57 13.084-36.724 31.957-41.9l50.29-13.791c5.737-1.573 9.714-6.788 9.714-12.736v-54.615h51.089v54.615c0 5.949 3.977 11.163 9.714 12.736l50.29 13.791c18.874 5.176 31.957 22.33 31.957 41.9z" fill="#ffcebf"/><path d="m427.541 412.381-50.29-13.79c-5.737-1.573-9.714-6.788-9.714-12.737v-54.615h-30v54.615c0 5.949 3.977 11.163 9.714 12.737l50.29 13.791c18.873 5.175 31.957 22.33 31.957 41.899v50.367h24c3.314 0 6-2.686 6-6v-44.367c0-19.57-13.084-36.724-31.957-41.9z" fill="#ffb09e"/><path d="m459.498 454.28v44.368c0 3.314-2.686 6-6 6h-223.011c-3.314 0-6-2.686-6-6v-44.368c0-19.567 13.087-36.725 31.956-41.902 0 0 17.626 40.821 85.549 40.821s85.549-40.821 85.549-40.821c18.87 5.177 31.957 22.334 31.957 41.902z" fill="#ff9154"/><g><path d="m427.542 412.378s-2.475 5.732-9.144 12.899c6.968 7.775 11.1 18.008 11.1 29.003v44.368c0 3.314-2.686 6-6 6h30c3.314 0 6-2.686 6-6v-44.368c0-19.568-13.087-36.725-31.956-41.902z" fill="#ff7f3e"/></g><g fill="#ffb09e"><path d="m259.535 239.279c0 21.632-13.276 39.169-29.652 39.169s-25.89-20.139-25.89-41.771 9.513-36.566 25.89-36.566 29.652 17.535 29.652 39.168z"/><path d="m424.451 239.279c0 21.632 13.276 39.169 29.652 39.169s25.89-20.139 25.89-41.771-9.513-36.566-25.89-36.566-29.652 17.535-29.652 39.168z"/></g><path d="m246.626 261.597v-64.893c0-52.67 42.697-95.367 95.367-95.367 52.67 0 95.367 42.697 95.367 95.367v64.534c0 52.769-42.778 95.546-95.546 95.546-52.571 0-95.188-42.617-95.188-95.187z" fill="#ffcebf"/><path d="m341.993 101.337c-5.104 0-10.113.406-15 1.178 45.542 7.196 80.367 46.624 80.367 94.189v64.534c0 47.66-34.896 87.165-80.531 94.368 4.882.772 9.886 1.178 14.985 1.178 52.769 0 95.546-42.777 95.546-95.546v-64.534c-.001-52.669-42.698-95.367-95.367-95.367z" fill="#ffb09e"/><path d="m341.993 98.106s-.507 127.367-102.718 150.898c-.917.211-1.832-.386-2.035-1.324-3.59-16.594-28.216-149.574 104.753-149.574z" fill="#d6694b"/><path d="m341.993 98.106s.507 127.367 102.718 150.898c.917.211 1.832-.386 2.035-1.324 3.589-16.594 28.215-149.574-104.753-149.574z" fill="#d6694b"/><path d="m341.993 98.106s.005.938.075 2.634c88.345 16.735 81.082 108.631 76.172 138.933 7.964 3.914 16.756 7.094 26.471 9.33.917.211 1.832-.386 2.035-1.324 3.589-16.593 28.215-149.573-104.753-149.573z" fill="#c4573a"/><path d="m122.993 209.364h30v249.149h-30z" fill="#dc8758"/><path d="m156.439 504.648h-36.033c-8.633 0-15.631-6.998-15.631-15.631v-48.738c0-8.633 6.998-15.631 15.631-15.631h36.033c13.44 0 24.336 10.895 24.336 24.336v31.329c0 13.439-10.896 24.335-24.336 24.335z" fill="#ffcebf"/><path d="m156.439 424.648h-30c13.44 0 24.336 10.895 24.336 24.336v31.329c0 13.44-10.895 24.336-24.336 24.336h30c13.44 0 24.336-10.896 24.336-24.336v-31.329c0-13.441-10.896-24.336-24.336-24.336z" fill="#ffb09e"/><path d="m137.993 7.648c-58.448 0-106 47.551-106 106s47.552 106 106 106 106-47.551 106-106-47.552-106-106-106zm0 182c-41.906 0-76-34.093-76-76s34.094-76 76-76 76 34.093 76 76-34.094 76-76 76z" fill="#e19974"/><g><path d="m137.993 7.648c-5.092 0-10.098.369-15 1.066 51.37 7.309 91 51.577 91 104.934s-39.63 97.625-91 104.934c4.902.697 9.908 1.066 15 1.066 58.448 0 106-47.551 106-106s-47.552-106-106-106z" fill="#dc8758"/></g><g><path d="m442.403 283.625c49.702 19.762 63.452-85.927 15.338-90.823-.428-5.232-1.103-10.596-2.109-16.003-.758-4.073-4.679-6.765-8.745-6.002-4.072.757-6.76 4.672-6.003 8.745 4.59 24.682 1.627 49.114-.344 60.656-58.85-14.724-87.141-79.925-90.65-134.421 38.655 1.696 65.664 16.086 80.352 42.839 1.993 3.631 6.55 4.959 10.184 2.965 3.631-1.994 4.958-6.553 2.965-10.184-3.949-7.193-8.615-13.623-13.978-19.298 1.932-41.059-38.047-74.363-87.42-74.447-49.396.086-89.393 33.417-87.415 74.51-1.312 1.384-2.583 2.814-3.812 4.289 10.827-91.59-89.39-157.512-169.119-111.307-3.592 2.062-4.832 6.646-2.771 10.238 2.062 3.593 6.646 4.833 10.239 2.771 64.487-37.738 148.036 10.719 147.376 85.496.001 54.312-44.186 98.499-98.499 98.499-84.091.256-129.749-100.621-73.949-163.496 2.737-3.109 2.435-7.848-.675-10.585-3.112-2.736-7.849-2.434-10.585.675-58.046 64.854-21.214 170.049 62.709 186.162v192.774c-10.401 2.259-18.218 11.532-18.218 22.601v48.737c0 12.755 10.377 23.131 23.131 23.131h36.033c17.555 0 31.836-14.281 31.836-31.835v-31.329c0-16.18-12.136-29.57-27.782-31.568v-192.511c16.519-3.336 31.748-10.271 44.834-19.947-20.963 29.017-3.614 94.451 36.19 78.691 7.749 35.274 33.68 63.813 67.436 75.244v26.965c0 2.56-1.727 4.82-4.203 5.497l-50.292 13.791c-22.064 6.057-37.475 26.261-37.475 49.132v44.37c0 7.444 6.056 13.5 13.5 13.5h223.02c7.444 0 13.5-6.056 13.5-13.5v-44.37c0-22.871-15.41-43.075-37.477-49.133l-50.295-13.792c-2.472-.676-4.198-2.936-4.198-5.496v-27.069c33.673-11.496 59.544-39.97 67.371-75.162zm30.09-46.948c.153 20.953-10.746 42.526-27.85 31.16.139-2.183.217-4.382.217-6.599v-4.702c1.801.076 3.582-.441 5.142-1.423 2.071-1.316 3.557-3.45 4.073-5.846 1.264-5.837 4.219-21.602 4.264-41.104 10.34 2.813 14.154 16.039 14.154 28.514zm-130.5-174.025c35.349 0 64.852 19.822 71.213 45.949-34.417-23.999-107.996-23.997-142.452.11 6.305-26.181 35.84-46.059 71.239-46.059zm-98.563 177.549c-1.451-8.328-3.283-22.471-2.749-38.533.01-.058.026-.113.035-.171.094-.617.101-1.226.046-1.821 1.712-53.82 32.093-92.199 93.333-93.9-3.515 54.575-31.85 119.719-90.665 134.425zm-70.155 208.782v31.329c0 9.283-7.553 16.835-16.836 16.835h-36.033c-4.483 0-8.131-3.647-8.131-8.131v-48.737c0-4.484 3.647-8.131 8.131-8.131h36.033c9.283 0 16.836 7.552 16.836 16.835zm-27.782-31.835h-15v-190.254c4.95.336 10.05.336 15 0zm81.754-233.461c-.425 3.07-.753 6.114-.998 9.114-3.517.378-6.782 1.316-9.767 2.754 3.857-3.697 7.457-7.662 10.765-11.868zm2.635 87.26c-20.647-.178-26.589-56.491-4.229-62.787.045 19.652 3.042 35.495 4.255 41.099.519 2.403 2.004 4.537 4.075 5.853 1.56.983 3.34 1.5 5.142 1.423v5.061c0 2.1.071 4.184.196 6.254-2.437 1.676-5.624 3.097-9.439 3.097zm24.244-9.35v-9.046c21.467-7.34 39.829-19.965 54.618-37.424 2.073.253 4.399.728 7.334 1.494 3.9 1.051 8.119-1.322 9.151-5.362 1.046-4.008-1.354-8.105-5.362-9.151-.398-.104-.776-.196-1.16-.292 6.774-10.243 12.566-21.747 17.288-34.476 2.403-6.479 4.374-12.842 5.998-18.931 1.624 6.089 3.595 12.452 5.998 18.931 4.722 12.729 10.513 24.233 17.288 34.476-.385.096-.761.188-1.16.292-4.008 1.046-6.408 5.144-5.362 9.151 1.032 4.041 5.251 6.413 9.151 5.362 2.93-.765 5.26-1.24 7.335-1.494 14.789 17.46 33.151 30.084 54.617 37.424v8.687c-4.754 116.503-170.851 116.957-175.734.359zm121.143 144.224 40.436 11.088c-16.823 23.199-65.58 37.028-110.281 23.793-3.957-1.209-8.152 1.022-9.363 4.984-1.209 3.961 1.022 8.153 4.984 9.362 57.549 16.616 112.52-4.49 129.867-33.494 12.651 5.759 21.091 18.51 21.091 32.723v42.87h-220.02v-42.87c0-14.219 8.446-26.973 21.104-32.729 2.736 4.106 7.301 9.885 14.265 15.705 3.16 2.646 7.897 2.245 10.564-.944 2.656-3.178 2.233-7.908-.945-10.564-3.765-3.147-6.607-6.205-8.712-8.831l40.452-11.092c8.974-2.454 15.241-10.664 15.241-19.964v-23.132c11.662 2.091 24.43 2.067 36.08-.055v23.187c.001 9.3 6.268 17.51 15.237 19.963z"/><path d="m389.329 301.298c2.742-3.104 2.448-7.844-.656-10.586-3.105-2.743-7.845-2.449-10.586.656-8.634 9.775-22.297 15.777-36.548 16.056-12.42.246-25.872-5.826-35.921-16.232-2.877-2.98-7.625-3.063-10.605-.186-2.979 2.877-3.062 7.625-.186 10.605 12.926 13.347 30.32 21.104 47.005 20.81 18.376-.358 36.131-8.255 47.497-21.123z"/><path d="m330.667 285.829c8.68 2.266 13.973 2.266 22.652 0 9.522-2.844 5.899-16.688-3.789-14.514-6.199 1.619-8.875 1.619-15.074 0-4.006-1.045-8.104 1.354-9.151 5.362s1.354 8.105 5.362 9.152z"/><path d="m306.993 256.339c4.143 0 7.5-3.358 7.5-7.5v-5c-.344-9.931-14.66-9.923-15 0v5c0 4.142 3.357 7.5 7.5 7.5z"/><path d="m376.993 256.339c4.143 0 7.5-3.358 7.5-7.5v-5c-.344-9.931-14.66-9.923-15 0v5c0 4.142 3.357 7.5 7.5 7.5z"/><path d="m137.993 197.148c46.042 0 83.5-37.458 83.5-83.5-4.587-110.774-162.43-110.742-167 .001 0 46.041 37.458 83.499 83.5 83.499zm-55.945-44.046c-3.763-5.32-6.784-11.194-8.919-17.479h8.919zm14.745 14.817h17.551v10.018c-6.38-2.354-12.312-5.637-17.642-9.676.036-.112.061-.228.091-.342zm.255-15v-17.296h17.296v17.296zm49.593-32.296h-17.297v-17.296h17.297zm15-17.297h17.296v17.296h-17.296zm-47.297 17.297h-17.296v-17.296h17.296zm15 15h17.297v17.296h-17.297zm32.297 0h17.296v17.296h-17.296zm17.551 32.296c.03.114.055.23.091.342-5.33 4.039-11.262 7.322-17.642 9.676v-10.018zm14.745-14.817v-17.479h8.919c-2.135 6.285-5.156 12.159-8.919 17.479zm0-32.479v-17.296h11.777c.861 5.608 1.012 11.612.425 17.296zm0-32.297v-14.133c3.087 4.364 5.675 9.101 7.684 14.133zm-15-17.296v17.296h-17.296v-17.296zm-17.296-15v-6.672c4.709 1.738 9.167 3.992 13.327 6.672zm-15 32.296h-17.297v-17.296h17.297zm-32.297 0h-17.296v-17.296h17.296zm-13.327-32.296c4.16-2.679 8.618-4.934 13.327-6.672v6.672zm-18.969 18.163v14.133h-7.684c2.01-5.032 4.597-9.768 7.684-14.133zm0 29.133v17.296h-12.202c-.587-5.685-.436-11.689.425-17.296zm47.296 78.256v-13.664h17.297v13.664c-5.647.746-11.65.746-17.297 0zm17.297-135.869v10.317h-17.297v-10.317c5.647-.745 11.65-.745 17.297 0z"/></g></g></svg>